<?xml version="1.0" encoding="UTF-8"?>
<!DOCTYPE svg PUBLIC "-//W3C//DTD SVG 1.1//EN" "http://www.w3.org/Graphics/SVG/1.1/DTD/svg11.dtd">
<!-- Creator: CorelDRAW -->
<svg xmlns="http://www.w3.org/2000/svg" xml:space="preserve" width="2048px" height="2048px" style="shape-rendering:geometricPrecision; text-rendering:geometricPrecision; image-rendering:optimizeQuality; fill-rule:evenodd; clip-rule:evenodd"
viewBox="0 0 2048 2048"
 xmlns:xlink="http://www.w3.org/1999/xlink">
 <defs>
  <style type="text/css">
   <![CDATA[
    .fil2 {fill:none}
    .fil7 {fill:#1556A0}
    .fil1 {fill:#EC407A}
    .fil0 {fill:#F06292}
    .fil4 {fill:#0A3476;fill-rule:nonzero}
    .fil5 {fill:#0D3168;fill-rule:nonzero}
    .fil3 {fill:#1565C0;fill-rule:nonzero}
    .fil6 {fill:#1E88E5;fill-rule:nonzero}
   ]]>
  </style>
   <clipPath id="id0">
    <path d="M1024 0c565.538,0 1024,458.462 1024,1024 0,565.538 -458.462,1024 -1024,1024 -565.538,0 -1024,-458.462 -1024,-1024 0,-565.538 458.462,-1024 1024,-1024z"/>
   </clipPath>
 </defs>
 <g id="Layer_x0020_1">
  <metadata id="CorelCorpID_0Corel-Layer"/>
  <path class="fil0" d="M1024 0c565.538,0 1024,458.462 1024,1024 0,565.538 -458.462,1024 -1024,1024 -565.538,0 -1024,-458.462 -1024,-1024 0,-565.538 458.462,-1024 1024,-1024z"/>
  <g style="clip-path:url(#id0)">
   <g id="_385689064">
    <g>
     <path id="_2380684481" class="fil1" d="M2586.75 2605.27l0 0zm-1135.88 -1135.88l0 0z"/>
     <path id="_238067992" class="fil1" d="M1733.01 2232.64l0 0zm-1135.88 -1135.88l0 0z"/>
     <polygon id="_238069264" class="fil1" points="1564.61,855.201 2700.49,1991.08 2701.73,1992.54 2702.92,1994.02 2704.08,1995.54 2705.21,1997.08 2706.3,1998.65 2707.35,2000.24 2708.37,2001.86 2709.34,2003.51 2710.28,2005.19 2711.18,2006.88 2712.04,2008.6 2712.85,2010.35 2713.63,2012.12 2714.36,2013.91 2715.05,2015.72 2715.7,2017.55 2716.3,2019.4 2716.86,2021.27 2717.37,2023.16 2717.84,2025.06 2718.26,2026.99 2718.64,2028.93 2718.96,2030.89 2719.24,2032.86 2719.47,2034.85 2719.65,2036.85 2719.78,2038.86 2719.86,2040.89 2719.88,2042.93 1584,907.052 1583.97,905.011 1583.9,902.982 1583.77,900.966 1583.59,898.964 1583.36,896.976 1583.08,895.003 1582.76,893.046 1582.38,891.105 1581.96,889.181 1581.49,887.273 1580.98,885.385 1580.42,883.515 1579.82,881.664 1579.17,879.833 1578.48,878.023 1577.75,876.233 1576.97,874.466 1576.15,872.722 1575.3,871.001 1574.4,869.304 1573.46,867.63 1572.48,865.983 1571.47,864.36 1570.42,862.764 1569.33,861.196 1568.2,859.654 1567.04,858.14 1565.84,856.657 "/>
     <polygon id="_238069408" class="fil1" points="1161.76,597.815 2297.64,1733.7 2298.91,1735.12 2300.14,1736.58 2301.33,1738.06 2302.5,1739.57 2303.62,1741.12 2304.71,1742.68 2305.76,1744.28 2306.78,1745.9 2307.75,1747.55 2308.69,1749.22 2309.59,1750.92 2310.45,1752.64 2311.26,1754.39 2312.04,1756.16 2312.77,1757.94 2313.46,1759.76 2314.11,1761.59 2314.72,1763.44 2315.27,1765.31 2315.79,1767.2 2316.26,1769.1 2316.68,1771.03 2317.05,1772.97 2317.38,1774.93 2317.65,1776.9 2317.88,1778.89 2318.06,1780.89 2318.19,1782.9 2318.27,1784.93 2318.29,1786.97 1182.41,651.091 1182.39,649.05 1182.31,647.021 1182.18,645.006 1182,643.004 1181.77,641.015 1181.5,639.043 1181.17,637.086 1180.8,635.144 1180.37,633.22 1179.91,631.313 1179.39,629.424 1178.83,627.554 1178.23,625.704 1177.58,623.873 1176.89,622.062 1176.16,620.273 1175.38,618.506 1174.57,616.761 1173.71,615.041 1172.81,613.342 1171.87,611.67 1170.9,610.021 1169.88,608.399 1168.83,606.802 1167.74,605.234 1166.61,603.693 1165.45,602.18 1164.26,600.695 1163.03,599.24 "/>
     <polygon id="_238068688" class="fil1" points="1182.41,651.091 2318.29,1786.97 2318.29,1963.62 1182.41,827.74 "/>
     <polygon id="_238068856" class="fil1" points="1560.72,1285 2696.6,2420.89 2695.24,2422.22 2693.84,2423.52 2692.42,2424.78 2690.97,2426.01 2689.48,2427.21 2687.97,2428.37 2686.43,2429.5 2684.86,2430.58 2683.26,2431.64 2681.64,2432.65 2679.99,2433.63 2678.32,2434.57 2676.62,2435.46 2674.9,2436.32 2673.15,2437.14 2671.39,2437.91 2669.6,2438.65 2667.79,2439.34 2665.96,2439.99 2664.11,2440.59 2662.24,2441.15 2660.35,2441.66 2658.44,2442.13 2656.52,2442.55 2654.57,2442.92 2652.62,2443.25 2650.64,2443.53 2648.66,2443.76 2646.65,2443.94 2644.64,2444.06 2642.61,2444.14 2640.57,2444.17 1504.69,1308.29 1506.73,1308.26 1508.76,1308.18 1510.77,1308.05 1512.77,1307.87 1514.76,1307.65 1516.74,1307.37 1518.69,1307.04 1520.63,1306.67 1522.56,1306.25 1524.47,1305.78 1526.35,1305.27 1528.22,1304.71 1530.08,1304.1 1531.91,1303.46 1533.72,1302.77 1535.51,1302.03 1537.27,1301.26 1539.02,1300.44 1540.74,1299.58 1542.44,1298.68 1544.11,1297.75 1545.76,1296.77 1547.38,1295.75 1548.98,1294.7 1550.55,1293.61 1552.09,1292.49 1553.6,1291.33 1555.08,1290.13 1556.54,1288.9 1557.96,1287.63 1559.36,1286.33 "/>
     <polygon id="_238069936" class="fil1" points="1504.69,1308.29 2640.57,2444.17 2626.58,2444.17 1490.7,1308.29 "/>
     <polygon id="_238069600" class="fil1" points="1490.7,1308.29 2626.58,2444.17 2626.58,2588.77 1490.7,1452.89 "/>
     <polygon id="_238069984" class="fil1" points="1490.7,1452.89 2626.58,2588.77 2626.56,2589.89 2626.48,2591.01 2626.34,2592.12 2626.16,2593.23 2625.92,2594.33 2625.62,2595.42 2625.27,2596.49 2624.87,2597.55 2624.42,2598.6 2623.91,2599.62 2623.35,2600.63 2622.74,2601.61 2622.07,2602.57 2621.35,2603.5 2620.58,2604.4 2619.75,2605.27 1483.87,1469.39 1484.7,1468.52 1485.47,1467.62 1486.19,1466.69 1486.86,1465.73 1487.47,1464.75 1488.03,1463.74 1488.54,1462.71 1488.99,1461.67 1489.39,1460.61 1489.74,1459.53 1490.04,1458.44 1490.27,1457.35 1490.46,1456.24 1490.6,1455.13 1490.68,1454.01 "/>
     <polygon id="_238069456" class="fil1" points="1483.87,1469.39 2619.75,2605.27 2617.98,2606.87 2616.09,2608.26 2614.1,2609.44 2612.03,2610.4 2609.89,2611.14 2607.71,2611.68 2605.49,2612 2603.25,2612.1 2601.01,2612 2598.79,2611.68 2596.61,2611.14 2594.47,2610.4 2592.4,2609.43 2590.41,2608.26 2588.52,2606.87 2586.75,2605.27 1450.87,1469.39 1452.64,1470.99 1454.53,1472.38 1456.52,1473.55 1458.59,1474.51 1460.73,1475.26 1462.91,1475.79 1465.13,1476.12 1467.37,1476.22 1469.61,1476.12 1471.83,1475.8 1474.01,1475.26 1476.15,1474.51 1478.22,1473.55 1480.21,1472.38 1482.1,1470.99 "/>
     <polygon id="_238070056" class="fil1" points="865.587,935.658 2001.47,2071.54 1894.11,2071.54 758.229,935.658 "/>
     <polygon id="_238069888" class="fil1" points="557.296,935.658 1693.18,2071.54 1679.19,2071.54 543.312,935.658 "/>
     <polygon id="_238070152" class="fil1" points="543.312,935.658 1679.19,2071.54 1677.15,2071.51 1675.12,2071.44 1673.11,2071.31 1671.11,2071.13 1669.12,2070.9 1667.14,2070.62 1665.19,2070.3 1663.25,2069.92 1661.32,2069.5 1659.41,2069.03 1657.53,2068.52 1655.66,2067.96 1653.8,2067.36 1651.97,2066.71 1650.16,2066.02 1648.37,2065.29 1646.61,2064.51 1644.86,2063.69 1643.14,2062.84 1641.44,2061.94 1639.77,2061 1638.12,2060.02 1636.5,2059.01 1634.9,2057.96 1633.34,2056.87 1631.79,2055.74 1630.28,2054.58 1628.8,2053.38 1627.34,2052.15 1625.92,2050.89 490.036,915.007 491.461,916.272 492.916,917.502 494.399,918.699 495.913,919.861 497.455,920.987 499.023,922.076 500.62,923.128 502.242,924.142 503.889,925.119 505.563,926.057 507.26,926.955 508.982,927.812 510.727,928.629 512.494,929.404 514.283,930.138 516.093,930.829 517.923,931.476 519.774,932.079 521.645,932.638 523.533,933.152 525.441,933.62 527.365,934.04 529.306,934.414 531.264,934.74 533.236,935.018 535.224,935.247 537.226,935.426 539.242,935.554 541.271,935.632 "/>
     <polygon id="_238070008" class="fil1" points="758.229,935.658 1894.11,2071.54 1733.01,2232.64 597.13,1096.76 "/>
     <polygon id="_238069480" class="fil1" points="597.13,1096.76 1733.01,2232.64 1731.24,2234.24 1729.35,2235.63 1727.36,2236.81 1725.29,2237.77 1723.16,2238.52 1720.97,2239.05 1718.75,2239.37 1716.51,2239.48 1714.28,2239.37 1712.06,2239.05 1709.87,2238.52 1707.73,2237.77 1705.66,2236.81 1703.67,2235.63 1701.78,2234.24 1700.01,2232.64 564.132,1096.76 565.903,1098.36 567.792,1099.75 569.78,1100.93 571.85,1101.89 573.988,1102.63 576.174,1103.17 578.395,1103.49 580.63,1103.59 582.867,1103.49 585.088,1103.17 587.274,1102.63 589.412,1101.89 591.482,1100.93 593.47,1099.75 595.359,1098.36 "/>
     <polygon id="_238069672" class="fil1" points="1289.77,1308.29 2425.65,2444.17 2080.78,2444.17 944.899,1308.29 "/>
     <polygon id="_238070464" class="fil1" points="944.899,1308.29 2080.78,2444.17 2078.74,2444.14 2076.71,2444.06 2074.7,2443.94 2072.69,2443.76 2070.71,2443.53 2068.73,2443.25 2066.77,2442.92 2064.83,2442.55 2062.91,2442.13 2061,2441.66 2059.11,2441.15 2057.24,2440.59 2055.39,2439.99 2053.56,2439.34 2051.75,2438.65 2049.96,2437.91 2048.2,2437.14 2046.45,2436.32 2044.73,2435.46 2043.03,2434.57 2041.36,2433.63 2039.71,2432.65 2038.09,2431.64 2036.49,2430.58 2034.92,2429.5 2033.38,2428.37 2031.87,2427.21 2030.39,2426.01 2028.93,2424.78 2027.51,2423.52 891.624,1287.63 893.049,1288.9 894.504,1290.13 895.988,1291.33 897.501,1292.49 899.043,1293.61 900.611,1294.7 902.208,1295.75 903.83,1296.77 905.479,1297.75 907.151,1298.68 908.85,1299.58 910.57,1300.44 912.315,1301.26 914.082,1302.03 915.871,1302.77 917.681,1303.46 919.511,1304.1 921.362,1304.71 923.233,1305.27 925.122,1305.78 927.029,1306.25 928.953,1306.67 930.894,1307.04 932.852,1307.37 934.824,1307.65 936.812,1307.87 938.814,1308.05 940.829,1308.18 942.858,1308.26 "/>
     <polygon id="_238070440" class="fil1" points="1584,907.052 2719.88,2042.93 2719.88,2364.86 1584,1228.97 "/>
     <polygon id="_238070536" class="fil1" points="1584,1228.97 2719.88,2364.86 2719.86,2366.9 2719.78,2368.93 2719.65,2370.94 2719.47,2372.94 2719.24,2374.93 2718.96,2376.9 2718.64,2378.86 2718.26,2380.8 2717.84,2382.73 2717.37,2384.63 2716.86,2386.52 2716.3,2388.39 2715.7,2390.24 2715.05,2392.07 2714.36,2393.88 2713.63,2395.67 2712.85,2397.44 2712.04,2399.18 2711.18,2400.91 2710.28,2402.6 2709.34,2404.28 2708.37,2405.93 2707.35,2407.55 2706.3,2409.14 2705.21,2410.71 2704.08,2412.25 2702.92,2413.77 2701.73,2415.25 2700.49,2416.71 2699.23,2418.13 2697.93,2419.52 2696.6,2420.89 1560.72,1285 1562.05,1283.64 1563.35,1282.25 1564.61,1280.82 1565.84,1279.37 1567.04,1277.88 1568.2,1276.37 1569.33,1274.83 1570.42,1273.26 1571.47,1271.66 1572.48,1270.04 1573.46,1268.39 1574.4,1266.72 1575.3,1265.02 1576.15,1263.3 1576.97,1261.56 1577.75,1259.79 1578.48,1258 1579.17,1256.19 1579.82,1254.36 1580.42,1252.51 1580.98,1250.64 1581.49,1248.75 1581.96,1246.84 1582.38,1244.92 1582.76,1242.98 1583.08,1241.02 1583.36,1239.05 1583.59,1237.06 1583.77,1235.06 1583.9,1233.04 1583.97,1231.01 "/>
    </g>
    <path id="_385689184" class="fil1" d="M1450.87 1469.39l0 0zm-853.744 -372.627l0 0zm612.158 -269.02l295.402 0c21.8351,0 41.6693,8.91615 56.0327,23.2807 14.3634,14.3634 23.2795,34.1953 23.2795,56.0315l0 321.922c0,21.8339 -8.91615,41.6681 -23.2795,56.0315 -14.3634,14.3634 -34.1988,23.2807 -56.0327,23.2807l-13.9843 0 -0.0011811 144.604c0,5.97166 -2.27835,11.9433 -6.83386,16.4988 -9.11221,9.11221 -23.8866,9.11221 -32.9965,-0.0011811l-161.101 -161.101 -344.872 0c-21.8339,0 -41.6681,-8.91733 -56.0315,-23.2807 -14.3634,-14.3634 -23.2807,-34.1977 -23.2807,-56.0315l0 -293.315 -107.358 0 -161.099 161.102c-9.11221,9.11221 -23.8866,9.11221 -32.9988,0 -4.55552,-4.55552 -6.83386,-10.5272 -6.83504,-16.4988l0 -144.604 -13.9843 0c-21.8362,0 -41.6693,-8.91615 -56.0327,-23.2795 -14.3634,-14.3634 -23.2795,-34.1988 -23.2795,-56.0327l0 -205.254c0,-21.8362 8.91615,-41.6693 23.2795,-56.0327 14.3634,-14.3634 34.1965,-23.2807 56.0327,-23.2807l559.789 0c21.8339,0 41.6681,8.91733 56.0315,23.2807 14.3634,14.3634 23.2807,34.1977 23.2807,56.0327l0 176.648 26.8725 0z"/>
   </g>
  </g>
  <path class="fil2" d="M1024 0c565.538,0 1024,458.462 1024,1024 0,565.538 -458.462,1024 -1024,1024 -565.538,0 -1024,-458.462 -1024,-1024 0,-565.538 458.462,-1024 1024,-1024z"/>
  <path class="fil3" d="M1182.41 857.574l0 -206.483c0,-21.8351 -8.91733,-41.6693 -23.2807,-56.0327 -14.3634,-14.3634 -34.1977,-23.2807 -56.0315,-23.2807l-559.789 0c-21.8362,0 -41.6693,8.91733 -56.0327,23.2807 -14.3634,14.3634 -23.2795,34.1965 -23.2795,56.0327l0 205.254c0,21.8339 8.91615,41.6693 23.2795,56.0327 14.3634,14.3634 34.1965,23.2795 56.0327,23.2795l13.9843 0 0 144.604 0.0011811 0c0,5.97166 2.27835,11.9433 6.83386,16.4988 9.11221,9.11221 23.8866,9.11221 32.9988,0l-0.00236221 -0.0011811 161.101 -161.101 185.804 0c0,-106.511 134.88,-78.0839 238.38,-78.0839z"/>
  <polygon class="fil4" points="803.02,864.114 803.02,822.478 844.657,822.478 844.657,864.114 "/>
  <path class="fil5" d="M803.02 808.111c-0.100394,-5.46378 -0.151181,-8.75316 -0.151181,-9.96615 0,-12.2445 2.02323,-22.311 6.07087,-30.2032 4.04764,-7.94292 12.1913,-16.7953 24.3343,-26.7118 12.1417,-9.86576 19.4268,-16.3406 21.7547,-19.4268 3.69213,-4.80591 5.51339,-10.1693 5.51339,-15.9862 0,-8.09528 -3.2374,-15.026 -9.71339,-20.8429 -6.47599,-5.76851 -15.1784,-8.65276 -26.1555,-8.65276 -10.5721,0 -19.4268,3.03662 -26.5595,9.0567 -7.08308,6.02008 -11.9906,15.228 -14.6717,27.5717l-38.1957 -4.7563c1.06299,-17.7059 8.59961,-32.7307 22.5626,-45.0756 14.0138,-12.3437 32.328,-18.5162 55.0937,-18.5162 23.8784,0 42.9,6.27402 57.0662,18.7701 14.1142,12.4949 21.1973,27.0142 21.1973,43.6583 0,9.15709 -2.63032,17.8595 -7.79056,26.0551 -5.21103,8.19568 -16.291,19.376 -33.2894,33.4902 -8.80276,7.33583 -14.2665,13.2047 -16.3902,17.6563 -2.12599,4.45158 -3.0874,12.3945 -2.88425,23.8795l-37.7918 0z"/>
  <path class="fil6" d="M1209.29 827.74l295.402 0c21.8351,0 41.6693,8.91615 56.0327,23.2807 14.3634,14.3634 23.2795,34.1953 23.2795,56.0315l0 321.922c0,21.8339 -8.91615,41.6681 -23.2795,56.0315 -14.3634,14.3634 -34.1988,23.2807 -56.0327,23.2807l-13.9843 0 0 144.604 -0.0011811 0c0,5.97166 -2.27835,11.9433 -6.83386,16.4988 -9.11221,9.11221 -23.8866,9.11221 -32.9988,0l0.00236221 -0.0011811 -161.101 -161.101 -344.872 0c-21.8339,0 -41.6681,-8.91733 -56.0315,-23.2807 -14.3634,-14.3634 -23.2807,-34.1977 -23.2807,-56.0315l0 -321.922c0,-21.8351 8.91615,-41.6681 23.2795,-56.0327 14.3634,-14.3634 34.1988,-23.2795 56.0327,-23.2795l264.386 0z"/>
  <rect class="fil7" x="985.992" y="996.469" width="477.604" height="28.2549"/>
  <rect class="fil7" x="985.992" y="1052.98" width="477.604" height="28.2549"/>
  <rect class="fil7" x="985.992" y="1109.49" width="254.498" height="28.2549"/>
 </g>
</svg>
