<?xml version="1.0" encoding="UTF-8"?>
<!DOCTYPE svg PUBLIC "-//W3C//DTD SVG 1.1//EN" "http://www.w3.org/Graphics/SVG/1.1/DTD/svg11.dtd">
<!-- Creator: CorelDRAW -->
<svg xmlns="http://www.w3.org/2000/svg" xml:space="preserve" width="2048px" height="2048px" style="shape-rendering:geometricPrecision; text-rendering:geometricPrecision; image-rendering:optimizeQuality; fill-rule:evenodd; clip-rule:evenodd"
viewBox="0 0 2048 2048"
 xmlns:xlink="http://www.w3.org/1999/xlink">
 <defs>
  <style type="text/css">
   <![CDATA[
    .fil2 {fill:none}
    .fil1 {fill:#455A64}
    .fil0 {fill:#78909C}
    .fil4 {fill:#29B6F6;fill-rule:nonzero}
    .fil5 {fill:#81D4FA;fill-rule:nonzero}
    .fil3 {fill:#E53935;fill-rule:nonzero}
   ]]>
  </style>
   <clipPath id="id0">
    <path d="M1024 -0.0011811c565.541,0 1024,458.461 1024,1024 0,565.541 -458.461,1024 -1024,1024 -565.541,0 -1024,-458.461 -1024,-1024 0,-565.541 458.461,-1024 1024,-1024z"/>
   </clipPath>
 </defs>
 <g id="Layer_x0020_1">
  <metadata id="CorelCorpID_0Corel-Layer"/>
  <path class="fil0" d="M1024 -0.0011811c565.541,0 1024,458.461 1024,1024 0,565.541 -458.461,1024 -1024,1024 -565.541,0 -1024,-458.461 -1024,-1024 0,-565.541 458.461,-1024 1024,-1024z"/>
  <g style="clip-path:url(#id0)">
   <g id="_385666408">
    <g>
     <polygon id="_2754909681" class="fil1" points="1450.53,647.55 2586.41,1783.43 2589.91,1787.6 2593.31,1791.84 2596.62,1796.17 2599.81,1800.57 2602.91,1805.05 2605.9,1809.61 2608.77,1814.24 2611.55,1818.95 2614.2,1823.72 2616.75,1828.56 2619.18,1833.47 2621.49,1838.44 2623.69,1843.47 2625.77,1848.57 2627.72,1853.72 2629.55,1858.93 2631.26,1864.19 2632.84,1869.51 2634.29,1874.88 2635.61,1880.3 2636.8,1885.76 2637.86,1891.27 2638.78,1896.83 2639.57,1902.43 2640.22,1908.06 2640.72,1913.74 2641.09,1919.45 2641.31,1925.19 2641.39,1930.97 2641.32,1936.78 2641.1,1942.62 1505.22,806.736 1505.43,800.899 1505.51,795.09 1505.43,789.312 1505.21,783.566 1504.84,777.856 1504.33,772.181 1503.69,766.544 1502.9,760.947 1501.98,755.392 1500.92,749.881 1499.73,744.415 1498.41,738.997 1496.96,733.628 1495.38,728.311 1493.67,723.047 1491.84,717.837 1489.89,712.684 1487.81,707.59 1485.61,702.556 1483.3,697.584 1480.87,692.677 1478.32,687.836 1475.66,683.063 1472.89,678.36 1470.01,673.728 1467.03,669.171 1463.93,664.688 1460.73,660.283 1457.43,655.958 1454.03,651.713 "/>
     <polygon id="_275490992" class="fil1" points="1145.59,532.095 2281.47,1667.98 2283.54,1670.33 2285.57,1672.72 2287.57,1675.13 2289.53,1677.58 2291.46,1680.05 2293.34,1682.56 2295.19,1685.1 2297,1687.66 2298.78,1690.25 2300.51,1692.87 2302.2,1695.52 2303.85,1698.2 2305.47,1700.9 2307.04,1703.63 2308.57,1706.38 2310.06,1709.16 2311.5,1711.96 2312.91,1714.79 2314.27,1717.65 2315.59,1720.52 2316.86,1723.42 2318.09,1726.34 1182.21,590.46 1180.98,587.537 1179.7,584.639 1178.39,581.763 1177.02,578.911 1175.62,576.082 1174.17,573.278 1172.69,570.499 1171.16,567.746 1169.58,565.017 1167.97,562.315 1166.32,559.64 1164.63,556.992 1162.89,554.371 1161.12,551.778 1159.31,549.214 1157.46,546.678 1155.58,544.172 1153.65,541.695 1151.69,539.249 1149.69,536.834 1147.66,534.449 "/>
     <polygon id="_284091544" class="fil1" points="1432.39,960.131 2568.27,2096.01 2564.2,2099.6 2560.05,2103.1 2555.81,2106.5 2551.49,2109.81 2547.09,2113.01 2542.6,2116.12 2538.05,2119.13 2533.41,2122.03 2528.7,2124.83 2523.92,2127.53 2519.08,2130.12 2514.16,2132.6 2509.18,2134.97 2504.13,2137.23 2499.02,2139.39 2493.86,2141.43 2488.63,2143.35 2483.35,2145.16 2478.01,2146.85 2472.63,2148.43 2467.19,2149.88 2461.7,2151.22 2456.17,2152.43 2450.59,2153.52 2444.97,2154.49 2439.3,2155.33 2433.6,2156.04 2427.86,2156.62 2422.09,2157.08 2416.29,2157.4 2410.45,2157.59 2404.58,2157.65 1268.7,1021.77 1274.57,1021.71 1280.4,1021.52 1286.21,1021.2 1291.98,1020.74 1297.72,1020.16 1303.42,1019.45 1309.08,1018.61 1314.7,1017.64 1320.28,1016.55 1325.82,1015.34 1331.31,1014 1336.74,1012.55 1342.13,1010.97 1347.47,1009.28 1352.75,1007.47 1357.98,1005.54 1363.14,1003.5 1368.25,1001.35 1373.3,999.089 1378.28,996.715 1383.19,994.234 1388.04,991.645 1392.82,988.948 1397.53,986.149 1402.16,983.245 1406.72,980.239 1411.2,977.131 1415.61,973.926 1419.93,970.621 1424.17,967.22 1428.32,963.722 "/>
     <polygon id="_284091928" class="fil1" points="1268.7,1021.77 2404.58,2157.65 2350.87,2157.56 1214.99,1021.68 "/>
     <polygon id="_284091616" class="fil1" points="1214.99,1021.68 2350.87,2157.56 2350,2157.58 2349.13,2157.6 2348.26,2157.62 2347.39,2157.63 2346.52,2157.64 2345.65,2157.65 2344.77,2157.65 2343.9,2157.65 1208.02,1021.77 1208.89,1021.77 1209.77,1021.77 1210.64,1021.76 1211.51,1021.75 1212.38,1021.74 1213.25,1021.72 1214.12,1021.7 "/>
     <polygon id="_284091328" class="fil1" points="1208.02,1021.77 2343.9,2157.65 1857.02,2156.82 721.134,1020.94 "/>
     <polygon id="_284091376" class="fil1" points="721.134,1020.94 1857.02,2156.82 1855.85,2156.82 1854.71,2156.81 1853.62,2156.79 1852.55,2156.77 1851.53,2156.74 1850.53,2156.71 1849.58,2156.67 1848.65,2156.63 712.773,1020.75 713.696,1020.79 714.654,1020.83 715.646,1020.86 716.673,1020.89 717.735,1020.91 718.834,1020.92 719.966,1020.93 "/>
     <polygon id="_284092192" class="fil1" points="712.773,1020.75 1848.65,2156.63 1844.11,2156.34 1839.6,2155.94 1835.13,2155.42 1830.7,2154.78 1826.3,2154.04 1821.95,2153.18 1817.64,2152.22 1813.37,2151.14 1809.14,2149.96 1804.96,2148.68 1800.83,2147.3 1796.74,2145.81 1792.7,2144.23 1788.71,2142.54 1784.77,2140.76 1780.89,2138.89 1777.05,2136.92 1773.28,2134.86 1769.55,2132.72 1765.89,2130.48 1762.28,2128.16 1758.73,2125.75 1755.24,2123.26 1751.81,2120.68 1748.44,2118.03 1745.14,2115.3 1741.9,2112.49 1738.73,2109.6 602.847,973.719 606.019,976.605 609.257,979.415 612.559,982.146 615.925,984.8 619.354,987.374 622.844,989.866 626.395,992.274 630.004,994.598 633.67,996.833 637.394,998.982 641.174,1001.04 645.006,1003.01 648.893,1004.88 652.831,1006.66 656.821,1008.34 660.859,1009.93 664.947,1011.42 669.082,1012.8 673.263,1014.08 677.488,1015.26 681.758,1016.33 686.07,1017.3 690.423,1018.15 694.818,1018.9 699.251,1019.53 703.723,1020.05 708.23,1020.46 "/>
     <polygon id="_284092096" class="fil1" points="1505.22,806.736 2641.1,1942.62 2640.73,1948.39 2640.23,1954.12 2639.59,1959.79 2638.81,1965.41 2637.89,1970.97 2636.84,1976.48 2635.65,1981.93 2634.34,1987.33 2632.9,1992.66 2631.33,1997.93 2629.63,2003.14 2627.81,2008.29 2625.87,2013.37 2623.81,2018.38 2621.63,2023.33 2619.34,2028.21 2616.93,2033.02 2614.41,2037.76 2611.77,2042.43 2609.03,2047.03 2606.18,2051.55 2603.23,2055.99 2600.17,2060.36 2597.01,2064.65 2593.75,2068.86 2590.39,2072.99 2586.93,2077.04 2583.38,2081.01 2579.74,2084.89 2576,2088.68 2572.18,2092.39 2568.27,2096.01 1432.39,960.131 1436.3,956.509 1440.12,952.801 1443.86,949.005 1447.5,945.124 1451.05,941.159 1454.51,937.11 1457.87,932.979 1461.13,928.769 1464.29,924.479 1467.35,920.111 1470.3,915.666 1473.15,911.146 1475.89,906.55 1478.53,901.881 1481.05,897.141 1483.46,892.331 1485.75,887.449 1487.93,882.5 1489.99,877.485 1491.93,872.403 1493.75,867.257 1495.44,862.047 1497.02,856.776 1498.46,851.443 1499.77,846.05 1500.96,840.599 1502.01,835.092 1502.92,829.528 1503.71,823.909 1504.35,818.236 1504.85,812.512 "/>
     <polygon id="_284092696" class="fil1" points="1165.3,1258.74 2301.18,2394.62 2327.06,2433.27 1191.18,1297.39 "/>
     <polygon id="_284092048" class="fil1" points="1191.18,1297.39 2327.06,2433.27 2287.79,2433.27 1151.91,1297.39 "/>
     <polygon id="_284092240" class="fil1" points="1151.91,1297.39 2287.79,2433.27 2223.33,2433.27 1087.44,1297.39 "/>
     <polygon id="_284092648" class="fil1" points="958.507,1297.39 2094.39,2433.27 2031.94,2433.27 896.059,1297.39 "/>
     <polygon id="_284092528" class="fil1" points="1087.44,1560.67 2223.33,2696.55 2223.33,2719.88 1087.44,1584 "/>
     <polygon id="_284092168" class="fil1" points="1087.44,1584 2223.33,2719.88 2205.47,2719.88 1069.59,1584 "/>
     <polygon id="_284092360" class="fil1" points="1069.59,1584 2205.47,2719.88 2112.24,2719.88 976.361,1584 "/>
     <polygon id="_284092456" class="fil1" points="976.361,1584 2112.24,2719.88 2094.39,2719.88 958.507,1584 "/>
     <polygon id="_284092552" class="fil1" points="896.059,1297.39 2031.94,2433.27 1992.68,2433.27 856.795,1297.39 "/>
     <polygon id="_284093080" class="fil1" points="1087.44,1297.39 2223.33,2433.27 2223.33,2696.55 1087.44,1560.67 "/>
     <polygon id="_284093416" class="fil1" points="1023.99,1047.66 2159.87,2183.54 2173.26,2203.54 1037.38,1067.66 "/>
     <polygon id="_284093128" class="fil1" points="1037.38,1067.66 2173.26,2203.54 2301.18,2394.62 1165.3,1258.74 "/>
    </g>
    <path id="_385666720" class="fil1" d="M1290.18 569.13c62.5087,3.13701 117.834,31.3193 156.745,74.3434 38.9162,43.03 61.4209,100.851 58.2874,163.263 -3.1063,61.8756 -30.6437,115.244 -72.828,153.395 -42.9095,38.8075 -100.96,61.7457 -163.688,61.6382l-53.713 -0.0921261c-2.31496,0.0649607 -4.63819,0.0956694 -6.96733,0.0921261l-486.885 -0.831497c-3.16181,-0.00472441 -5.94804,-0.068504 -8.36103,-0.190158 -48.6496,-2.44252 -91.4186,-25.0996 -121.93,-59.2926 -30.2079,-33.8516 -48.43,-79.1776 -48.3473,-127.375 0.00472441,-3.04843 0.0625985,-5.82402 0.17126,-8.31733 -0.119291,-2.92087 -0.175984,-5.85355 -0.17126,-8.79568 0.00590552,-3.71457 0.0826772,-7.05945 0.231496,-10.0169 2.8252,-56.2772 28.1977,-106.088 66.9355,-141.122 38.7414,-35.0362 90.7961,-55.2981 146.976,-52.4788 10.5295,0.529134 20.6646,1.79646 30.3638,3.74646 5.77087,-12.0921 12.7961,-23.4484 20.8973,-33.9083 12.4217,-27.1571 30.5941,-51.026 52.8874,-70.1268 38.2465,-32.7709 88.6135,-51.5221 142.854,-48.7996 45.4583,2.28071 86.6953,19.2721 119.337,46.1315 25.8721,21.2906 46.3406,48.7831 59.23,80.067 12.2209,-5.77323 25.0418,-10.4894 38.3362,-14.0351 22.1138,-5.89607 45.5244,-8.50512 69.6367,-7.29449zm-124.879 689.606l25.8744 38.6492 -39.2646 0 -64.4693 0 0 263.281 0 23.3351 -17.8559 0 -93.2268 0 -17.8547 0 0 -23.3351 0 -263.281 -62.4473 0 -39.2646 0 25.8744 -38.6492 127.926 -191.075 13.3902 -20.002 13.3913 20.002 127.926 191.075z"/>
   </g>
  </g>
  <path class="fil2" d="M1024 -0.0011811c565.541,0 1024,458.461 1024,1024 0,565.541 -458.461,1024 -1024,1024 -565.541,0 -1024,-458.461 -1024,-1024 0,-565.541 458.461,-1024 1024,-1024z"/>
  <polygon class="fil3" points="1087.44,1297.39 1087.44,1560.67 1087.44,1584 1069.59,1584 976.361,1584 958.507,1584 958.507,1560.67 958.507,1297.39 896.059,1297.39 856.795,1297.39 882.669,1258.74 1010.6,1067.66 1023.99,1047.66 1037.38,1067.66 1165.3,1258.74 1191.18,1297.39 1151.91,1297.39 "/>
  <path class="fil4" d="M1290.18 569.13c62.5087,3.13701 117.834,31.3193 156.745,74.3434 38.9162,43.03 61.4209,100.851 58.2874,163.263 -3.1063,61.8756 -30.6437,115.244 -72.828,153.395 -42.9095,38.8075 -100.96,61.7457 -163.688,61.6382l-531.278 -0.907087c-3.45,-0.00590552 -6.49016,-0.0755906 -9.12402,-0.207874 -53.0847,-2.66457 -99.7524,-27.3886 -133.045,-64.6985 -32.9634,-36.939 -52.8461,-86.3965 -52.7563,-138.989 0.00590552,-3.71457 0.0826772,-7.05945 0.231496,-10.0169 2.8252,-56.2772 28.1977,-106.088 66.9355,-141.122 38.7414,-35.0362 90.7961,-55.2981 146.976,-52.4788 11.6681,0.585827 22.8532,2.07992 33.4961,4.40315 1.76929,0.387402 3.53386,0.797245 5.29134,1.23307 10.3772,-42.0957 33.717,-78.8127 65.3611,-105.925 38.2465,-32.7709 88.6135,-51.5221 142.854,-48.7996 45.4583,2.28071 86.6953,19.2721 119.337,46.1315 25.8721,21.2906 46.3406,48.7831 59.23,80.067 12.2209,-5.77323 25.0418,-10.4894 38.3362,-14.0351 22.1138,-5.89607 45.5244,-8.50512 69.6367,-7.29449z"/>
  <path class="fil5" d="M1227.71 606.951c57.2847,2.87481 107.988,28.7032 143.648,68.1319 35.6634,39.4347 56.2878,92.4249 53.4166,149.621 -2.84646,56.7048 -28.0831,105.613 -66.743,140.577 -39.3237,35.5642 -92.5229,56.5855 -150.01,56.4874l-486.886 -0.831497c-3.16063,-0.00472441 -5.94685,-0.0696851 -8.36103,-0.190158 -48.6485,-2.44252 -91.4174,-25.1008 -121.929,-59.2926 -30.2079,-33.8516 -48.43,-79.1764 -48.3473,-127.375 0.00472441,-3.40394 0.0755906,-6.4689 0.211417,-9.17953 2.58898,-51.5752 25.8425,-97.2237 61.343,-129.33 35.504,-32.1095 83.2099,-50.6776 134.695,-48.0933 10.6925,0.53504 20.9433,1.9063 30.6969,4.03465 1.62165,0.354331 3.23859,0.731103 4.84961,1.12913 9.50906,-38.5772 30.9,-72.2268 59.8997,-97.0725 35.0504,-30.0331 81.2091,-47.2181 130.917,-44.7225 41.6599,2.09055 79.4516,17.6622 109.365,42.2764 23.7106,19.5118 42.4701,44.7071 54.2811,73.376 11.1992,-5.29016 22.9488,-9.61182 35.1343,-12.861 20.2654,-5.40355 41.7201,-7.7941 63.8174,-6.68623z"/>
 </g>
</svg>
